<?xml version="1.0" standalone="no"?>
<!DOCTYPE svg PUBLIC "-//W3C//DTD SVG 20010904//EN"
 "http://www.w3.org/TR/2001/REC-SVG-20010904/DTD/svg10.dtd">
<svg version="1.0" xmlns="http://www.w3.org/2000/svg"
 width="1024.000000pt" height="1024.000000pt" viewBox="0 0 1024.000000 1024.000000"
 preserveAspectRatio="xMidYMid meet">
<g transform="translate(0.000000,1024.000000) scale(0.100000,-0.100000)"
fill="#000000" stroke="none">
<path d="M0 5120 l0 -5120 5120 0 5120 0 0 5120 0 5120 -5120 0 -5120 0 0
-5120z m7262 2531 l33 -29 -3 -94 c-24 -839 -398 -1685 -957 -2166 -98 -84
-289 -221 -326 -234 -17 -6 -20 -5 73 -62 182 -112 398 -306 550 -496 231
-288 419 -658 531 -1045 70 -240 123 -568 129 -793 l3 -113 -33 -30 -32 -29
-2106 0 c-2312 0 -2147 -5 -2174 60 -24 59 18 458 75 715 164 733 572 1367
1102 1713 56 37 101 70 100 74 -1 3 -49 37 -107 75 -444 292 -803 786 -999
1373 -100 299 -154 584 -177 937 l-7 102 36 36 35 35 2111 0 2111 0 32 -29z"/>
</g>
</svg>
